<svg xmlns="http://www.w3.org/2000/svg" viewBox="0 0 512 512"><title>favicon</title><g id="Capa_2" data-name="Capa 2"><g id="Capa_1-2" data-name="Capa 1"><path d="M438,256.6a180,180,0,0,1-4.1,38.4,182.45,182.45,0,0,1-50.8,92.2,182.66,182.66,0,0,1-90.7,48.5,182.91,182.91,0,0,1-37.3,3.8c-3.1,0-6.1-.1-9.1-.2a181.9,181.9,0,0,1-93.3-31.1,188.66,188.66,0,0,1-23.6-19,185.87,185.87,0,0,1-21.9-25,181.85,181.85,0,0,1-34.9-107v-6.4a182.17,182.17,0,0,1,40.2-108.51,177.76,177.76,0,0,1,14.9-16.4,183.24,183.24,0,0,1,85.3-47.1,177.41,177.41,0,0,1,28.3-4.4c4.6-.4,9.3-.5,14.1-.5A181.79,181.79,0,0,1,342.25,96a187,187,0,0,1,22.5,14.4,184.56,184.56,0,0,1,19.5,16.9c3,3,5.9,6.1,8.6,9.2A182.9,182.9,0,0,1,438,256.6Z" style="fill:#bb30bb"/><path d="M427.65,195.89c-29.5,39.3-66.2,81.61-108.2,123.61-42.4,42.4-85.1,79.4-124.7,109a3,3,0,0,1-.7.5,180.29,180.29,0,0,1-35.4-17,2.51,2.51,0,0,0,.7-.4h0l.1-.1c40-21.9,90.7-61.2,140.8-111.2,49.6-49.6,88.6-99.71,110.6-139.61a175.44,175.44,0,0,1,13.7,27C425.65,190.39,426.65,193.09,427.65,195.89Z" style="fill:#f9a24b"/><path d="M340.75,121.89a5.38,5.38,0,0,1-2.8-.8,150,150,0,0,0-19.8-10.5,5.37,5.37,0,1,1,4.4-9.8,171.65,171.65,0,0,1,21.2,11.2,5.37,5.37,0,0,1,1.7,7.4A5.5,5.5,0,0,1,340.75,121.89Z" style="fill:#fff"/><path d="M365.55,376.8a5.35,5.35,0,0,1-3.6-9.3,156.66,156.66,0,0,0,49.5-114,154.78,154.78,0,0,0-48.8-113.31,5.38,5.38,0,0,1,7.4-7.8,165.44,165.44,0,0,1,52.1,121,167.65,167.65,0,0,1-52.9,121.8A5.17,5.17,0,0,1,365.55,376.8Z" style="fill:#fff"/><path d="M343.05,394.4a5.42,5.42,0,0,1-4.5-2.4,5.34,5.34,0,0,1,1.6-7.4c2.7-1.8,5.4-3.7,8.1-5.6a5.36,5.36,0,1,1,6.4,8.6c-2.8,2.1-5.7,4.1-8.6,6A6.74,6.74,0,0,1,343.05,394.4Z" style="fill:#fff"/><path d="M384.25,127.19a184.56,184.56,0,0,0-19.5-16.9,182.68,182.68,0,0,0-22.5-14.4,20.28,20.28,0,0,0,1.3,1.8c11.4,11.3,5.4,38-13.5,72.5l-.1.1a7.46,7.46,0,0,1-.7,1.2c-22,39.8-61,90-110.6,139.61-8.7,8.7-17.4,17.1-26.1,25.1a17.66,17.66,0,0,1-28-5.6,182.92,182.92,0,0,1,97.1-245.41,187.63,187.63,0,0,1,30.9-9.5,186.41,186.41,0,0,0-38.3-4A182.85,182.85,0,0,0,129.75,388.5c-.3.2-.6.5-.9.7a180.05,180.05,0,0,0,23.6,19,10.63,10.63,0,0,0,1.1-.9,178.52,178.52,0,0,0,39.6,19.7,183.85,183.85,0,0,0,61,10.4,186.41,186.41,0,0,0,38.3-4,188.81,188.81,0,0,1-22.6-6.4A184.51,184.51,0,0,1,212,393.6l-2.7-2.4a22.43,22.43,0,0,1-.3-33c9.6-9,19.2-18.3,28.7-27.9,42-42,78.7-84.31,108.2-123.61.3-.4.5-.7.8-1.1a688.06,688.06,0,0,0,46-69.1A91.6,91.6,0,0,0,384.25,127.19Z" style="fill:#6c147a"/><path d="M498.25,13.59c-24-24-95.5,5.9-181.1,69.8l-.8.8a178.62,178.62,0,0,1,35.2,17l.9-.9c34.6-18.9,61.2-24.8,72.5-13.5s5.4,38-13.5,72.5l-.1.1a7.46,7.46,0,0,1-.7,1.2c-22,39.8-61,90-110.6,139.61-50.1,50.1-100.7,89.3-140.8,111.2l-.1.1h0c-.2.1-.5.3-.7.4a239.49,239.49,0,0,1-23.8,11.4c-22.5,9.1-39.5,10.2-48,1.7-11.3-11.3-5.5-37.5,13.1-71.8a185.64,185.64,0,0,1-17.1-35.3c-63.5,85.2-93.1,156.4-69.2,180.3,18.6,18.6,65.7,4.9,125.8-32h0c17.3-10.6,35.6-23.1,54.6-37.3a3,3,0,0,1,.7-.5c39.7-29.6,82.3-66.6,124.7-109,42-42,78.7-84.31,108.2-123.61.3-.4.5-.7.8-1.1C492.45,109.19,522.25,37.59,498.25,13.59Z" style="fill:#bc80bc"/><path d="M256,444.5a188.24,188.24,0,0,1-63.2-10.8l3.6-10.1A176.94,176.94,0,0,0,256,433.8c98,0,177.8-79.8,177.8-177.8a177.38,177.38,0,0,0-10.2-59.61l-.3-.9v-.9h5.4l5-1.8A187.83,187.83,0,0,1,444.45,256C444.45,360,360,444.5,256,444.5Z" style="fill:#1c2833"/><path d="M37.65,512c-11.9,0-21.2-3.3-27.8-9.9-13.4-13.4-13.1-38,.7-73.2,12.7-32,36.5-71.8,68.7-114.9l8.6,6.4c-31.7,42.4-54.9,81.3-67.2,112.4-11.8,30-12.9,51.9-3.1,61.7s31.7,8.7,61.7-3.1c31.2-12.3,70.1-35.5,112.4-67.2,40.5-30.3,83.4-67.8,124.1-108.5s78.2-83.61,108.5-124.11c31.7-42.4,54.9-81.3,67.2-112.4,11.8-30,12.9-51.9,3.1-61.7s-31.7-8.7-61.7,3.1c-31.2,12.3-70.1,35.5-112.4,67.2l-6.4-8.6c43.1-32.2,82.9-56,114.9-68.6,35.2-13.9,59.8-14.1,73.2-.7s13.1,38-.7,73.2c-12.6,32.1-36.4,71.8-68.6,114.9-30.6,40.9-68.5,84.21-109.5,125.31S239,402.2,198.05,432.8c-43.1,32.2-82.9,56-114.9,68.6C65.25,508.5,50.05,512,37.65,512Zm66-75.8c-8.8,0-15.7-2.4-20.5-7.3-12.9-12.9-8.6-40.2,12.5-78.9l9.4,5.1c-17.8,32.6-23.2,57.4-14.4,66.2s33.6,3.4,66.2-14.4l1.2-.7c40.8-22.5,91.2-62.5,138.5-109.8,47.6-47.61,87.8-98.41,110.3-139.41l.1-.2c17.9-32.7,23.2-57.4,14.4-66.2s-33.6-3.4-66.2,14.4l-5.1-9.4c38.7-21.2,66-25.5,78.9-12.6s8.6,40.2-12.5,78.8l-.1.2c-22.9,41.9-63.8,93.61-112.2,142s-100.1,89.3-142,112.2l-.1.1a.35.35,0,0,0-.2.1h0C137.75,429.6,118.15,436.2,103.65,436.2Z" style="fill:#1c2833"/><path d="M37.75,487.3c-5,0-8.8-.9-10.4-2.6-.4-.4-8.6-9.2,6.2-46.7,8-20.4,21-44.3,38.2-70.5-13.6,32.8-13.1,56.7,1.5,71.3,5.2,5.2,14.7,11.4,30.4,11.4,11.4,0,25-3.3,40.7-9.8-45.5,29.8-83.9,46.9-106.6,46.9Zm402.5-342.81c13.6-32.7,13.1-56.7-1.5-71.3-5.2-5.2-14.7-11.4-30.4-11.4-11.4,0-25,3.3-40.7,9.8,45.5-29.8,83.9-46.9,106.6-46.9,5,0,8.8.9,10.4,2.6.4.4,8.6,9.2-6.2,46.7C470.35,94.39,457.45,118.29,440.25,144.49Z" style="fill:#9b26b5"/><path d="M159.85,415l-4.6-2.2A189.76,189.76,0,0,1,95,352.5a183.5,183.5,0,0,1-17.3-36,187.43,187.43,0,0,1-10.8-62.7c0-103.11,83.9-187,187-187a185.38,185.38,0,0,1,62.7,10.8,191.41,191.41,0,0,1,35.9,17.3,188.75,188.75,0,0,1,60.3,60.3l-6.3,10.6-2.8-5A176,176,0,0,0,313,87.69a176.32,176.32,0,0,0-59-10.1c-97.2,0-176.2,79.1-176.2,176.21a176.46,176.46,0,0,0,10.1,59.1,176.18,176.18,0,0,0,72.9,90.6l3.8,1.8Z" style="fill:#1c2833"/></g></g></svg>